<svg xmlns="http://www.w3.org/2000/svg" xmlns:xlink="http://www.w3.org/1999/xlink" width="1280" height="800" viewBox="0 0 1280 800">
  <defs>
    <clipPath id="clip-Tavola_disegno_2">
      <rect width="1280" height="800"/>
    </clipPath>
  </defs>
  <g id="Tavola_disegno_2" data-name="Tavola disegno 2" clip-path="url(#clip-Tavola_disegno_2)">
    <rect width="1280" height="800" fill="#fff"/>
    <rect id="Rectangle_21" data-name="Rectangle 21" width="1293.532" height="808.457" transform="translate(-6.499 -4.52)" fill="#030404"/>
    <g id="Component_3_1" data-name="Component 3 – 1" transform="translate(566.53 323.604)">
      <path id="Path_16" data-name="Path 16" d="M1559.338,406.5c.931-.572,1.066-1.471,1.066-3.109V358.534c0-7.447-.178-12.589-3.193-15.6-1.771-1.773-4.254-2.659-7.623-2.659-3.9,0-7.447,1.24-11.348,3.19v59.931c0,2.66.355,3.368,3.9,3.9l2.836.531v1.419h-39.539v-1.419l2.838-.531c4.254-.71,4.787-1.241,4.787-4.079v-55.5c0-3.015-.533-4.965-1.952-6.56l-5.141-5.851v-.533l10.053-3.4,22.926-7.766.355.532c-.355,4.788-.709,9.4-.709,11.348l-.177,5.142.708.355c10.994-11.171,19.5-15.959,28.9-15.959a17.543,17.543,0,0,1,12.41,4.964c2.66,2.661,4.078,6.207,4.788,11.881,9.22-9.753,18.971-16.845,30.142-16.845a17.547,17.547,0,0,1,12.412,4.964c3.014,3.192,4.965,7.626,4.965,17.909v55.5c0,2.837.354,3.191,4.788,3.9l2.835.531v1.419h-27.144c-1.048-5.421-6.256-3.1-6.256-3.1.509-.576.6-1.418.6-2.748V358.534c0-7.447,0-12.589-3.014-15.6-1.772-1.773-4.432-2.659-7.624-2.659-3.724,0-8.155,1.771-11.525,3.545.177,1.95.177,4.078.177,6.56v53.016c0,2.66.178,3.368,3.724,3.9l2.837.531v1.419h-26.7Z" transform="translate(-1485.109 -323.604)" fill="#fff"/>
      <path id="Path_17" data-name="Path 17" d="M1552.485,475.813h-39.9v-1.419l2.864-.532c4.294-.709,4.832-1.241,4.832-4.077v-55.5c0-3.014-.538-4.964-1.97-6.56l-5.188-5.851v-.532l33.282-11.17.358.531c-.358,4.788-.717,9.4-.717,11.348l-.177,5.143.714.354c11.094-11.17,19.684-15.958,29.167-15.958a17.8,17.8,0,0,1,12.526,4.964c2.684,2.661,4.115,6.206,4.831,11.881,9.3-9.752,19.146-16.845,30.419-16.845a17.793,17.793,0,0,1,12.526,4.964c3.042,3.193,5.01,7.625,5.01,17.909v55.5c0,2.836.358,3.191,4.832,3.9l2.862.532v1.419h-39.724v-1.419l2.864-.532c3.4-.532,3.757-1.241,3.757-3.9V425.1c0-7.447,0-12.588-3.042-15.6-1.789-1.774-4.473-2.66-7.7-2.66-3.757,0-8.23,1.773-11.629,3.546.177,1.951.177,4.078.177,6.56v53.016c0,2.659.18,3.368,3.759,3.9l2.864.532v1.419h-38.83v-1.419l2.861-.532c3.581-.532,3.939-1.241,3.939-3.9V425.1c0-7.447-.18-12.588-3.222-15.6-1.789-1.774-4.294-2.66-7.7-2.66-3.936,0-7.515,1.241-11.451,3.191v59.931c0,2.659.357,3.368,3.936,3.9l2.864.532Z" transform="translate(-1485.109 -323.604)" fill="#fff"/>
      <path id="Path_18" data-name="Path 18" d="M1508.062,407.41l11.28,1.834c-2.428.781-6.617-.037-10.053.365-4.368.51-8.063,2.267-11.316,3.85-5.344,2.6-8.409,8.756-8.409,11.79,0,1.116.525,3.493,1.572,3.613,1.464.169,3.693-2.214,4.686-2.214l3.289-.121c6.331-.244,7.427,3.774,7.427,6.7,0,4.992-3.409,9.862-10.1,9.862-5.237,0-11.324-3.9-11.324-14.246,0-11.568,9.8-19.725,22.953-21.43" transform="translate(-1485.109 -323.604)" fill="#fff"/>
    </g>
    <rect id="Rectangle_22" data-name="Rectangle 22" width="1293.532" height="808.457" transform="translate(-6.499 -4.52)" fill="none"/>
    <rect id="Rectangle_23" data-name="Rectangle 23" width="1293.532" height="808.457" transform="translate(-6.499 -4.52)" fill="none"/>
  </g>
</svg>
